<svg width="512pt" height="512pt" viewBox="0 0 512 512" xmlns="http://www.w3.org/2000/svg"><path fill="#293181" d="M162.92 18.93c9.67-4.34 21.21-4.1 30.76.49 8.18 3.77 14.71 10.67 18.45 18.83 8.22-8.31 20.34-12.7 31.96-10.9 12.89 1.68 24.28 10.62 29.45 22.48 6.62-6.85 15.81-11.23 25.36-11.63 9.89-.53 19.93 3.08 27.18 9.83 7.79 7.05 12.3 17.49 12.19 28 .08 42.98.05 85.96.14 128.94 15.13-16.4 30.29-32.76 45.48-49.1 1.83-2.18 4.93-3.26 7.66-2.22 3.32 1.06 5.29 4.84 4.36 8.19-1.76 7.47-3.8 14.87-5.59 22.33-11.05 43.8-22.1 87.6-33.12 131.4 6.7-.06 13.41.04 20.11-.03 11.75.12 23.57-.51 35.28.32 4.27 1.83 5.97 7.81 2.53 11.22-41.86 45.36-83.98 90.5-125.81 135.9-9.83 10.31-19.33 20.95-29.15 31.27-2.45 2.63-6.99 2.56-9.45-.02-2.03-1.8-2.5-4.76-1.7-7.27 6.4-25.64 12.93-51.24 19.36-76.88-33.45-.06-66.91-.05-100.36 0-3.63.27-7.14-2.71-7.44-6.33-.47-4 3.38-7.78 7.37-7.37 34.64-.02 69.27 0 103.91-.01 5.21-20.84 10.53-41.66 15.72-62.5-17.56-.04-35.12.05-52.68-.04-3.74.18-7.25-3.02-7.08-6.83-.09-3.25 2.58-5.45 4.55-7.65 27.87-30.13 55.71-60.29 83.57-90.44 2.83-3.33 6.26-6.24 8.72-9.83.17-25.35-.02-50.71.09-76.07-6.69 5.36-15.09 8.7-23.72 8.62-9.9.17-19.65-3.95-26.72-10.83 3.96 9.71 3.71 21.1-1 30.51-5.96 12.56-19.38 21.19-33.33 21.16-15.37.08-30.74.01-46.11.03 17.07 9.54 31.33 24.1 40.11 41.6 3.54 6.81 6.28 14.01 8.41 21.38 1.48 4.95-4.18 10.04-8.97 7.94-3.81-1.27-4.54-5.59-5.69-8.91-5.96-18.54-17.86-35.27-34.12-46.14-13.76-9.32-30.13-14.67-46.71-15.59-2.75-.14-5.11-2.33-6-4.86-1.39-4.34 2.52-9.42 7.08-9.08 30.38-.05 60.75.03 91.13-.03 9.94.22 19.6-6.38 22.85-15.8 2.65-7.01 1.57-15.21-2.69-21.36-4.38-6.65-12.29-10.68-20.22-10.58-40.02.02-80.03 0-120.05.01-6.47.1-13.21.72-19.04 3.78-4.67 2.43-7.74 7.15-9.09 12.14-2.9 9.73-1.74 19.98-1.98 29.98.2 12.7-.67 25.48 1.15 38.1 3.31 23.89 14.34 46.56 30.81 64.14 1.99 2.27 4.92 4.38 4.86 7.73l.07 109.66c2.08 1.17 4.22 2.84 4.51 5.4 1.02 4.18-3.04 8.44-7.23 8.02-14.38.01-28.76.07-43.13-.02-3.69.13-7.14-3.33-6.92-7.04.13-3.52 3.39-6.67 6.93-6.58 10.7-.05 21.4-.01 32.11-.02-.02-35.5.05-71-.05-106.5-22.91-23.96-36.65-56.61-36.78-89.84-.05-43.36-.03-86.72-.01-130.08-.27-15.87 10.25-31.14 25.11-36.66 14.05-5.62 31.02-1.87 41.63 8.85 3.28-10.25 11.03-19.02 20.98-23.21m-9.49 33.12c-.12 21.78-.02 43.57-.05 65.36 16-.03 32 .03 48-.02.01-21.45.02-42.89-.01-64.34-.01-10.64-7.88-20.69-18.33-22.94-13.8-3.56-29.04 7.68-29.61 21.94m61.7 9.88c-.13 18.49 0 36.98-.06 55.48 8.99.02 17.99-.08 26.98.07 7.47.24 14.49 3.24 20.84 6.98-.05-20.17-.01-40.34-.08-60.5-.16-11.42-9.43-21.75-20.77-23.11-12.72-1.94-25.99 8.12-26.91 21.08m-126.21 7.1c-.1 18.93 0 37.86-.05 56.79 14.5-11.16 33.8-7.87 50.81-8.41.03-15.45-.03-30.9.02-46.35.96-14.4-12.19-27.76-26.65-26.65-12.79.36-24.05 11.82-24.13 24.62m206.49-16.59c-10.33 2.28-18.37 12.01-18.52 22.6-.06 13-.02 26.01-.02 39.01-.09 9.96 6.71 19.48 16.18 22.59 8.68 3.18 19.04.41 25.2-6.42 4.29-4.6 6.53-10.93 6.36-17.2-.06-12.99.13-25.98-.1-38.97-.59-14.06-15.43-25.22-29.1-21.61m-45.13 267.73c15.23.04 30.46-.02 45.69.04 4.63-.5 8.49 4.59 6.89 8.93-11.36 45.31-22.85 90.6-34.23 135.91 9.14-9.86 18.35-19.67 27.39-29.61 32.9-35.33 65.66-70.78 98.46-106.2-15.15.01-30.29-.03-45.44.02-3.23.26-6.41-1.96-7.24-5.1-.75-3.12.83-6.18 1.42-9.2 9.23-36.87 18.77-73.67 27.75-110.6 2.03-6.58 3.42-13.35 5.18-20.01-41.95 45.28-83.95 90.51-125.87 135.82z"/><g fill="#fdd361"><path d="M392.23 181.5l25.91-27.91c-13.6 53.99-27.24 107.96-40.83 161.95-6.7.07-13.41-.03-20.11.03 11.02-43.8 22.07-87.6 33.12-131.4.43-1.02 1.17-1.86 1.91-2.67zM263.81 320.08c35.68-38.61 71.55-77.05 107.16-115.72-8.98 36.93-18.52 73.73-27.75 110.6-.59 3.02-2.17 6.08-1.42 9.2.83 3.14 4.01 5.36 7.24 5.1 15.15-.05 30.29-.01 45.44-.02-32.8 35.42-65.56 70.87-98.46 106.2 3.38-11.72 6.03-23.64 9.12-35.44 6.67-26.49 13.39-52.98 20.02-79.48-7.39-.01-14.78 0-22.17 0-13.04-.82-26.12-.26-39.18-.44zM412.59 315.86c8.79.07 17.58 0 26.37.04-51.55 55.66-103.13 111.28-154.69 166.93 1.68-6.62 3.26-13.26 5.04-19.85 41.83-45.4 83.95-90.54 125.81-135.9 3.44-3.41 1.74-9.39-2.53-11.22z"/></g></svg>